<svg width="89" height="69" viewBox="0 0 89 69" fill="none" xmlns="http://www.w3.org/2000/svg">
<path d="M20.086 69C14.1558 69 9.27781 67.1639 5.45191 63.4916C1.8173 59.626 0 54.6975 0 48.7059C0 41.1681 3.06072 32.9538 9.18216 24.063C15.4949 14.979 23.8162 6.95798 34.1462 0L38.4503 4.34874C34.4331 8.60084 31.2767 12.563 28.9812 16.2353C26.6857 19.9076 25.5379 22.9034 25.5379 25.2227C25.5379 26.5756 25.9205 27.8319 26.6857 28.9916C27.6421 30.1513 28.9812 31.4076 30.7028 32.7605C33.381 34.8866 35.4852 37.1092 37.0156 39.4286C38.5459 41.7479 39.3111 44.8403 39.3111 48.7059C39.3111 54.6975 37.4938 59.626 33.8592 63.4916C30.2246 67.1639 25.6335 69 20.086 69ZM69.7749 69C63.8447 69 58.9667 67.1639 55.1408 63.4916C51.5062 59.626 49.6889 54.6975 49.6889 48.7059C49.6889 41.1681 52.7496 32.9538 58.871 24.063C65.1838 14.979 73.5051 6.95798 83.835 0L88.1392 4.34874C84.122 8.60084 80.9656 12.563 78.6701 16.2353C76.3745 19.9076 75.2268 22.9034 75.2268 25.2227C75.2268 26.5756 75.6094 27.8319 76.3745 28.9916C77.331 30.1513 78.6701 31.4076 80.3917 32.7605C83.0699 34.8866 85.1741 37.1092 86.7045 39.4286C88.2348 41.7479 89 44.8403 89 48.7059C89 54.6975 87.1827 59.626 83.5481 63.4916C79.9135 67.1639 75.3224 69 69.7749 69Z" fill="#E6EBFF"/>
</svg>
